
<svg xmlns="http://www.w3.org/2000/svg" width="21.185" height="19.011" viewBox="0 0 21.185 19.011">
  <path id="Path_697" data-name="Path 697" d="M10.37,18.5a.509.509,0,0,1-.365-.154c-.783-.8-1.576-1.594-2.369-2.386C6.1,14.426,4.512,12.84,3.024,11.2,1.23,9.227-.615,6.884.2,4.068A5.68,5.68,0,0,1,5.03.059a5.79,5.79,0,0,1,5.34,2,5.79,5.79,0,0,1,5.34-2,5.68,5.68,0,0,1,4.833,4.01c.812,2.816-1.033,5.159-2.827,7.134-1.488,1.639-3.077,3.225-4.614,4.76-.792.792-1.585,1.583-2.367,2.384a.509.509,0,0,1-.365.154M5.9,1.02a5.5,5.5,0,0,0-.733.05,4.674,4.674,0,0,0-3.99,3.282c-.667,2.311.993,4.394,2.6,6.165,1.471,1.62,3.05,3.2,4.578,4.722q1.01,1.009,2.014,2.023c.666-.678,1.339-1.349,2.012-2.021,1.528-1.526,3.108-3.1,4.579-4.724,1.609-1.771,3.269-3.854,2.6-6.165a4.674,4.674,0,0,0-3.99-3.282A4.73,4.73,0,0,0,10.805,3.2a.529.529,0,0,1-.87,0A4.641,4.641,0,0,0,5.9,1.02" transform="translate(0.222 0.261)" stroke="#000" stroke-width="0.5"/>
</svg>
